<svg xmlns="http://www.w3.org/2000/svg" viewBox="0 0 48 48"><g data-name="Woman Doctor Asian"><path fill="#edb996" d="M33 13c0 6.59.26 8.42-.82 10.75-9.1-2.85-7.22-2.86-16.36 0C14.59 21.17 15 18.27 15 13c3.94-.89 9.8-3.35 12-7a10.27 10.27 0 0 0 6 7Z"/><path fill="#f6ccaf" d="M33 13c0 6.07.23 7.49-.82 9.75-5.26-1.65-7.69-2.93-11.34-1.57l-1.24.39a2 2 0 0 1-2.6-1.91v-7.22c2.83-.9 7.89-2.93 10-6.44a10.27 10.27 0 0 0 6 7Z"/><path fill="#edb996" d="M15 13v6h-1c-4 0-4-6 0-6zm19 6h-1v-6h1c4 0 4 6 0 6z"/><path fill="#f6ccaf" d="M37 15.5a3 3 0 0 1-3 2.5h-1v-5h1a3 3 0 0 1 3 2.5Z"/><path fill="#dad7e5" d="M32.18 23.75a9 9 0 0 1-16.36 0c8.81-2.75 7.51-2.95 16.36 0Z"/><path fill="#edebf2" d="M32 23.68a9 9 0 0 1-14.32-.5C24.69 21 23.47 21 32 23.68Z"/><path fill="#a87e6b" d="M19.68 27.89 11 25v-9a3 3 0 0 0 3 3h1a10.33 10.33 0 0 0 .56 4.12 9 9 0 0 0 4.12 4.77Z"/><path fill="#a07765" d="M14 20c0 2.36.15 4.37 2 6.67 6.07 2 3.1 1.3 1.5-.43A9 9 0 0 1 15.22 22c-.76-3.4.63-3-1.22-3a3 3 0 0 1-3-3v3.22a3.79 3.79 0 0 0 3 .78Z"/><path fill="#be927c" d="M37 16v9l-8.68 2.89a9 9 0 0 0 3.86-4.14A10.11 10.11 0 0 0 33 19h1a3 3 0 0 0 3-3Z"/><path fill="#a87e6b" d="M32.05 26.59c1.69-2 2-4.17 2-6.59 1.23 0 2 .09 3-.78V16a3 3 0 0 1-3 3c-1.86 0-.44-.37-1.25 3.12a8.93 8.93 0 0 1-4.43 5.77c3.96-1.33 3.63-1.19 3.68-1.3Z"/><path fill="#be927c" d="M37 16a3 3 0 0 0-3-3h-1a10.27 10.27 0 0 1-6-7c-2.38 4-9.88 7-13 7a3 3 0 0 0-3 3v-2C11 2.41 25.06-3.32 33.19 4.81 37 8.57 37 12.47 37 16Z"/><path fill="#edb996" d="M34 13h-1a10.27 10.27 0 0 1-6-7c-3 5-12 7-12 7h-1a3 3 0 0 0-3 3v1a3 3 0 0 1 3-3c2.7 0 8.31-2.32 11.07-4.75a2 2 0 0 1 3.05.49A9.78 9.78 0 0 0 33 14h1a3 3 0 0 1 3 3v-1a3 3 0 0 0-3-3Z"/><path fill="#a87e6b" d="M25 1.05A13 13 0 0 0 11 14v2a3 3 0 0 1 2-2.83A13 13 0 0 1 25 1.05Z"/><path fill="#dad7e5" d="M19 30v17H4c.48-2.65.1-.56 2-11 13.35-6.14 1.14-.54 13-6Z"/><path fill="#edebf2" d="M17 30.92V45h-3.49A7.63 7.63 0 0 1 6 36c6.19-2.85-9.53 4.38 11-5.08Z"/><path fill="#6fabe6" d="M29 40v7H19v-7l5-5 5 5z"/><path fill="#82bcf4" d="M29 41v4h-1a7 7 0 0 1-6.93-6.07 4.15 4.15 0 0 1 5.86 0Z"/><path fill="#dad7e5" d="M44 47H29V30l13 6c1.92 10.55 1.52 8.34 2 11Z"/><path fill="#edebf2" d="M43.64 45H29V30c10 4.62 1.69.8 13 6Z"/><path fill="#5b9ad8" d="M29 30v10l-5-5a5 5 0 0 0 5-5Z"/><path fill="#5b9ad8" d="M29 30v10l-5-5a5 5 0 0 0 5-5Z"/><path fill="#5b9ad8" d="M29 30v10l-5-5a5 5 0 0 0 5-5zm-5 5-5 5V30a5 5 0 0 0 5 5z"/><path fill="#d1a586" d="M29 27.48c0 2.43.41 5.27-2.61 6.91A5 5 0 0 1 19 30c0-5-.75-1 5-1a8.94 8.94 0 0 0 5-1.52Z"/><path fill="#edb996" d="M25 30.5a1.57 1.57 0 0 1 2 1.5 4.93 4.93 0 0 1-.61 2.39 5 5 0 0 1-7.39-3.9 8.94 8.94 0 0 0 6 .01Z"/><path fill="#dad7e5" d="M4 47h15v1H4zM29 47h15v1H29z"/><path fill="#6fabe6" d="M19 47h10v1H19z"/><path fill="#231f20" d="M43 35.82c-.14-.79.26-.41-13.62-5.75-.48-.19-.36.33-.36-1.35 9-3 9-2.75 9-3.72V14A14 14 0 0 0 24 0c-7 0-14 5.26-14 15 0 10.87-.24 10.64.68 11L19 28.72V30c-.3 0 .76-.37-13.36 5.06-.73.29-.47-.06-2.64 11.76A1 1 0 0 0 4 48c1.15 0 .87-.17 2.88-11.27L11.35 35a8 8 0 0 0-.35 3.14A4 4 0 0 0 8 42v1a1 1 0 0 0 1 1h1a1 1 0 0 0 0-2 2 2 0 0 1 4 0 1 1 0 0 0 0 2h1a1 1 0 0 0 1-1v-1a4 4 0 0 0-3-3.86c0-4 1-4.15 5-5.68V47a1 1 0 0 0 2 0v-6.59l4-4 4 4V47a1 1 0 0 0 2 0V32.46c2.9 1.11 5 1.55 5 4.72A3 3 0 0 0 33 40c0 4 6 4 6 0a3 3 0 0 0-2-2.82 6 6 0 0 0-.35-2.18l4.47 1.72C43.12 47.74 42.85 48 44 48a1 1 0 0 0 1-1.18ZM21 31v-1.46a10.06 10.06 0 0 0 6 0V31c0 4-6 4-6 0Zm-7-17v4a2 2 0 0 1 0-4Zm20 4v-4a2 2 0 0 1 0 4Zm-2.5 4.75c-8-3-7.6-2.78-15 0-.67-1.82-.5-2.62-.5-9 2-.55 7.52-2.27 10.66-5.69A11 11 0 0 0 32 13.63c0 7.16.11 7.46-.5 9.12Zm-14.08 1.79c7.1-2.67 6.43-2.53 13.16 0a8 8 0 0 1-13.16 0ZM34 20a3.91 3.91 0 0 0 2-.56v4.84C29.33 26.5 34 26 34 20ZM24 2a12 12 0 0 1 11.9 10.5A4 4 0 0 0 34 12c-2.58 0-5.45-3.45-6-6.2a1 1 0 0 0-1.84-.31C23.92 9.19 16.68 12 14 12a4 4 0 0 0-1.9.5A12 12 0 0 1 24 2ZM12 19.44a3.91 3.91 0 0 0 2 .56c0 6 4.68 6.51-2 4.28ZM20 34c1.85 2.48 3.16.46 0 3.62Zm8 0v3.62c-3.14-3.18-1.87-1.13 0-3.62Zm8 7a1 1 0 0 1 0-2 1 1 0 0 1 0 2Z"/><path fill="#231f20" d="M26 16c0 1.2 1.17 1 3 1a1 1 0 0 0 0-2c-1.85 0-3-.2-3 1zm-5-1c-1.85 0-3-.2-3 1s1.17 1 3 1a1 1 0 0 0 0-2zm3 24a1 1 0 0 0 0 2 1 1 0 0 0 0-2zm0 4a1 1 0 0 0 0 2 1 1 0 0 0 0-2z"/></g></svg>