<svg xmlns="http://www.w3.org/2000/svg" viewBox="0 0 48 48"><path d="M25 43a1 1 0 0 0-2 0 1 1 0 0 0 2 0Z"/><path fill="#f6ccaf" d="M34 11c0 25.18.71 29.26-2 32-5.76 7.67-18 3.54-18-6V11a10 10 0 0 1 20 0Z"/><path fill="#ffdec7" d="M34 11c0 27.39.67 28.42-2 32a9.85 9.85 0 0 1-6 2 10 10 0 0 1-10-10V9a10.07 10.07 0 0 1 2-6 10 10 0 0 1 16 8Z"/><rect width="12" height="14" x="18" y="17" fill="#edb996" rx="2"/><path fill="#f6ccaf" d="M30 19c0 10.61-.1 10 0 10a10 10 0 0 1-10-10v-2h8a2 2 0 0 1 2 2Z"/><path fill="#edb996" d="M47 24a10 10 0 0 1-10 10h-3V14h3a10 10 0 0 1 10 10Z"/><path fill="#f6ccaf" d="M44.07 29.07C40.77 32.37 37.31 32 34 32V14h3c7.4 0 13.59 8.55 7.07 15.07Z"/><path fill="#edb996" d="M14 14v20c-3.81 0-7.72.35-11-4-4.74-4.74-1.26-16 8-16Z"/><path fill="#f6ccaf" d="M12 14v15c0 4-5.58 3.56-9 1a9.88 9.88 0 0 1-2-6.75C1.38 18.42 5.31 14 12 14Z"/><path d="M28 16h-8a3 3 0 0 0-3 3v10a3 3 0 0 0 3 3h8a3 3 0 0 0 3-3V19a3 3 0 0 0-3-3Zm1 13a1 1 0 0 1-1 1h-8a1 1 0 0 1-1-1V19a1 1 0 0 1 1-1h8a1 1 0 0 1 1 1Z"/><path d="M37 13h-2v-2a11 11 0 0 0-22 0v2h-2a11 11 0 0 0 0 22h2v2a11 11 0 0 0 22 0v-2h2a11 11 0 0 0 0-22ZM11 33a9 9 0 0 1 0-18h2v18Zm22 4a9 9 0 0 1-18 0V11a9 9 0 0 1 18 0Zm10.36-6.64C40.51 33.22 37.55 33 35 33V15h2a9 9 0 0 1 6.36 15.36Z"/><path d="M20 10a1 1 0 0 0 0-2 1 1 0 0 0 0 2zm2 4a1 1 0 0 0 0-2 1 1 0 0 0 0 2zm4 0a1 1 0 0 0 0-2 1 1 0 0 0 0 2zm4-2a1 1 0 0 0 0 2 1 1 0 0 0 0-2zm-12 2a1 1 0 0 0 0-2 1 1 0 0 0 0 2zm6-4a1 1 0 0 0 0-2 1 1 0 0 0 0 2zm0-4a1 1 0 0 0 0-2 1 1 0 0 0 0 2zm4 4a1 1 0 0 0 0-2 1 1 0 0 0 0 2zm-8 28a1 1 0 0 0 0 2 1 1 0 0 0 0-2zm2-4a1 1 0 0 0 0 2 1 1 0 0 0 0-2zm0-13a1 1 0 0 0 0 2 1 1 0 0 0 0-2zm4 0a1 1 0 0 0 0 2 1 1 0 0 0 0-2zm-4 4a1 1 0 0 0 0 2 1 1 0 0 0 0-2zm4 0a1 1 0 0 0 0 2 1 1 0 0 0 0-2zm0 9a1 1 0 0 0 0 2 1 1 0 0 0 0-2zm4 0a1 1 0 0 0 0 2 1 1 0 0 0 0-2zm-12 0a1 1 0 0 0 0 2 1 1 0 0 0 0-2zm6 4a1 1 0 0 0 0 2 1 1 0 0 0 0-2zm4 0a1 1 0 0 0 0 2 1 1 0 0 0 0-2z"/></svg>