<svg xmlns="http://www.w3.org/2000/svg" enable-background="new 0 0 47.5 47.5" viewBox="0 0 47.5 47.5"><defs><clipPath id="a"><path d="M0 38h38V0H0v38Z"/></clipPath></defs><g clip-path="url(#a)" transform="matrix(1.25 0 0 -1.25 0 47.5)"><path fill="#66757f" d="M0 0a.999.999 0 0 0-.707 1.707l7.778 7.778a1 1 0 0 0 1.414-1.414L.707.293A.997.997 0 0 0 0 0" transform="translate(26.071 26.071)"/><path fill="#ccd6dd" d="M0 0a2.003 2.003 0 0 0-2.829 0l-1.414 1.414a2 2 0 0 0 0 2.829l4.95 4.949a1.998 1.998 0 0 0 2.828 0L4.95 7.778c.78-.781.78-2.047 0-2.828L0 0Z" transform="translate(7.686 4.443)"/><path fill="#99aab5" d="M0 0a1.5 1.5 0 0 0-2.121 0l-2.121 2.121a1.5 1.5 0 0 0 2.121 2.122L0 2.121A1.5 1.5 0 0 0 0 0" transform="translate(27.839 24.596)"/><path fill="#e1e8ed" d="M0 0a2 2 0 0 0-2.828 0l-4.243 4.242a2 2 0 0 0 0 2.829L4.95 19.092a2 2 0 0 0 2.828 0l4.243-4.243a2 2 0 0 0 0-2.828L0 0Z" transform="translate(15.464 9.394)"/><path fill="#dd2e44" d="M0 0c-.781-.78-1.34-.073-2.121.707L-6.364 4.95c-.781.781-1.488 1.341-.707 2.121L.707 14.85c.781.78 2.048.78 2.828 0l4.243-4.243a1.999 1.999 0 0 0 0-2.829L0 0Z" transform="translate(19.707 13.636)"/><path fill="#99aab5" d="M0 0a1.5 1.5 0 0 0-2.121 0l-7.778 7.777a1.5 1.5 0 0 0 2.121 2.122L0 2.121A1.5 1.5 0 0 0 0 0" transform="translate(15.818 6.919)"/><path fill="#99aab5" d="M0 0a1.5 1.5 0 0 0-2.122 0l-4.949 4.95A1.5 1.5 0 1 0-4.95 7.071L0 2.121A1.501 1.501 0 0 0 0 0" transform="translate(8.747 2.676)"/><path fill="#dd2e44" d="M0 0c-.374.582-.887 1.38-1.535 2.676-.131.263-.565.263-.695 0C-2.879 1.38-3.392.582-3.766 0c-.523-.814-.838-1.306-.838-2.165a2.724 2.724 0 0 1 2.721-2.722A2.725 2.725 0 0 1 .839-2.165C.839-1.306.523-.814 0 0" transform="translate(34.883 20.498)"/><path fill="#dd2e44" d="M0 0c-.374.582-.887 1.38-1.535 2.676-.131.263-.565.263-.695 0C-2.879 1.38-3.392.582-3.766 0c-.523-.814-.838-1.307-.838-2.164a2.725 2.725 0 0 1 2.721-2.723A2.726 2.726 0 0 1 .839-2.164C.839-1.307.523-.814 0 0" transform="translate(30.883 11.498)"/></g></svg>