<svg xmlns="http://www.w3.org/2000/svg" enable-background="new 0 0 47.5 47.5" viewBox="0 0 47.5 47.5"><defs><clipPath id="a"><path d="M0 38h38V0H0v38Z"/></clipPath></defs><g clip-path="url(#a)" transform="matrix(1.25 0 0 -1.25 0 47.5)"><path fill="#bb1a34" d="m0 0-8.868 8.855-13.234-13.622 8.684-8.684.001.001a9.468 9.468 0 0 1 6.71-2.777c5.246 0 9.5 4.254 9.5 9.5A9.47 9.47 0 0 1 0 0" transform="translate(34.207 17.227)"/><path fill="#fdcb58" d="M0 0a9.453 9.453 0 0 1-6.421 2.513 9.5 9.5 0 0 1-9.5-9.5c0-2.479.958-4.73 2.513-6.421l-.013-.014 8.605-8.605L8.417-8.405 0 0Z" transform="translate(16.921 34.487)"/></g></svg>